<?xml version="1.0" encoding="UTF-8"?>
<svg xmlns="http://www.w3.org/2000/svg" width="900" height="310" viewBox="0 0 900 310" role="img" aria-label="Waveform overview columns">

  <defs>
    <marker id="a" markerWidth="10" markerHeight="10" refX="8" refY="4" orient="auto">
      <path d="M0,0 L8,4 L0,8 Z" fill="#5a403a"/>
    </marker>
  </defs>

  <!-- Dense PCM sample lines -->
  <text x="30" y="26" font-family="Space Grotesk, system-ui, sans-serif" font-size="16" font-weight="500" fill="#5a403a">~44,100 samples/s</text>

  <line x1="30" y1="166" x2="30" y2="140" stroke="#5a403a" stroke-width="2.5"/>
  <line x1="34" y1="170" x2="34" y2="136" stroke="#5a403a" stroke-width="2.5"/>
  <line x1="38" y1="175" x2="38" y2="131" stroke="#5a403a" stroke-width="2.5"/>
  <line x1="42" y1="181" x2="42" y2="125" stroke="#5a403a" stroke-width="2.5"/>
  <line x1="46" y1="187" x2="46" y2="119" stroke="#5a403a" stroke-width="2.5"/>
  <line x1="50" y1="193" x2="50" y2="113" stroke="#5a403a" stroke-width="2.5"/>
  <line x1="54" y1="199" x2="54" y2="107" stroke="#5a403a" stroke-width="2.5"/>
  <line x1="58" y1="205" x2="58" y2="101" stroke="#5a403a" stroke-width="2.5"/>
  <line x1="62" y1="199" x2="62" y2="107" stroke="#5a403a" stroke-width="2.5"/>
  <line x1="66" y1="193" x2="66" y2="113" stroke="#5a403a" stroke-width="2.5"/>
  <line x1="70" y1="187" x2="70" y2="119" stroke="#5a403a" stroke-width="2.5"/>
  <line x1="74" y1="181" x2="74" y2="125" stroke="#5a403a" stroke-width="2.5"/>
  <line x1="78" y1="175" x2="78" y2="131" stroke="#5a403a" stroke-width="2.5"/>
  <line x1="82" y1="170" x2="82" y2="136" stroke="#5a403a" stroke-width="2.5"/>
  <line x1="86" y1="166" x2="86" y2="140" stroke="#5a403a" stroke-width="2.5"/>
  <line x1="90" y1="161" x2="90" y2="145" stroke="#5a403a" stroke-width="2.5"/>
  <line x1="94" y1="170" x2="94" y2="136" stroke="#5a403a" stroke-width="2.5"/>
  <line x1="98" y1="179" x2="98" y2="127" stroke="#5a403a" stroke-width="2.5"/>
  <line x1="102" y1="187" x2="102" y2="119" stroke="#5a403a" stroke-width="2.5"/>
  <line x1="106" y1="196" x2="106" y2="110" stroke="#5a403a" stroke-width="2.5"/>
  <line x1="110" y1="205" x2="110" y2="101" stroke="#5a403a" stroke-width="2.5"/>
  <line x1="114" y1="214" x2="114" y2="92" stroke="#5a403a" stroke-width="2.5"/>
  <line x1="118" y1="205" x2="118" y2="101" stroke="#5a403a" stroke-width="2.5"/>
  <line x1="122" y1="196" x2="122" y2="110" stroke="#5a403a" stroke-width="2.5"/>
  <line x1="126" y1="187" x2="126" y2="119" stroke="#5a403a" stroke-width="2.5"/>
  <line x1="130" y1="179" x2="130" y2="127" stroke="#5a403a" stroke-width="2.5"/>
  <line x1="134" y1="170" x2="134" y2="136" stroke="#5a403a" stroke-width="2.5"/>
  <line x1="138" y1="162" x2="138" y2="144" stroke="#5a403a" stroke-width="2.5"/>
  <line x1="142" y1="168" x2="142" y2="138" stroke="#5a403a" stroke-width="2.5"/>
  <line x1="146" y1="174" x2="146" y2="132" stroke="#5a403a" stroke-width="2.5"/>
  <line x1="150" y1="180" x2="150" y2="126" stroke="#5a403a" stroke-width="2.5"/>
  <line x1="154" y1="186" x2="154" y2="120" stroke="#5a403a" stroke-width="2.5"/>
  <line x1="158" y1="192" x2="158" y2="114" stroke="#5a403a" stroke-width="2.5"/>
  <line x1="162" y1="186" x2="162" y2="120" stroke="#5a403a" stroke-width="2.5"/>
  <line x1="166" y1="180" x2="166" y2="126" stroke="#5a403a" stroke-width="2.5"/>
  <line x1="170" y1="174" x2="170" y2="132" stroke="#5a403a" stroke-width="2.5"/>
  <line x1="174" y1="168" x2="174" y2="138" stroke="#5a403a" stroke-width="2.5"/>
  <line x1="178" y1="162" x2="178" y2="144" stroke="#5a403a" stroke-width="2.5"/>
  <line x1="182" y1="157" x2="182" y2="149" stroke="#5a403a" stroke-width="2.5"/>
  <line x1="186" y1="164" x2="186" y2="142" stroke="#5a403a" stroke-width="2.5"/>
  <line x1="190" y1="171" x2="190" y2="135" stroke="#5a403a" stroke-width="2.5"/>
  <line x1="194" y1="178" x2="194" y2="128" stroke="#5a403a" stroke-width="2.5"/>
  <line x1="198" y1="185" x2="198" y2="121" stroke="#5a403a" stroke-width="2.5"/>
  <line x1="202" y1="192" x2="202" y2="114" stroke="#5a403a" stroke-width="2.5"/>
  <line x1="206" y1="199" x2="206" y2="107" stroke="#5a403a" stroke-width="2.5"/>
  <line x1="210" y1="210" x2="210" y2="96" stroke="#5a403a" stroke-width="2.5"/>
  <line x1="214" y1="199" x2="214" y2="107" stroke="#5a403a" stroke-width="2.5"/>
  <line x1="218" y1="192" x2="218" y2="114" stroke="#5a403a" stroke-width="2.5"/>
  <line x1="222" y1="185" x2="222" y2="121" stroke="#5a403a" stroke-width="2.5"/>
  <line x1="226" y1="178" x2="226" y2="128" stroke="#5a403a" stroke-width="2.5"/>
  <line x1="230" y1="171" x2="230" y2="135" stroke="#5a403a" stroke-width="2.5"/>
  <line x1="234" y1="164" x2="234" y2="142" stroke="#5a403a" stroke-width="2.5"/>

  <!-- Arrow -->
  <path d="M268 153 L338 153" stroke="#5a403a" stroke-width="3.5" marker-end="url(#a)"/>

  <!-- Waveform overview columns -->
  <text x="380" y="26" font-family="Space Grotesk, system-ui, sans-serif" font-size="16" font-weight="500" fill="#5a403a">up to 1,500 columns</text>

  <line x1="390" y1="86" x2="390" y2="220" stroke="#a33d52" stroke-width="3.5" stroke-linecap="round"/>
  <line x1="428" y1="98" x2="428" y2="208" stroke="#a33d52" stroke-width="3.5" stroke-linecap="round"/>
  <line x1="466" y1="110" x2="466" y2="196" stroke="#a33d52" stroke-width="3.5" stroke-linecap="round"/>
  <line x1="504" y1="92" x2="504" y2="214" stroke="#a33d52" stroke-width="3.5" stroke-linecap="round"/>
  <line x1="542" y1="76" x2="542" y2="230" stroke="#a33d52" stroke-width="3.5" stroke-linecap="round"/>
  <line x1="580" y1="88" x2="580" y2="218" stroke="#a33d52" stroke-width="3.5" stroke-linecap="round"/>
  <line x1="618" y1="100" x2="618" y2="206" stroke="#a33d52" stroke-width="3.5" stroke-linecap="round"/>
  <line x1="656" y1="112" x2="656" y2="194" stroke="#a33d52" stroke-width="3.5" stroke-linecap="round"/>
  <line x1="694" y1="82" x2="694" y2="224" stroke="#a33d52" stroke-width="3.5" stroke-linecap="round"/>
  <line x1="732" y1="94" x2="732" y2="212" stroke="#a33d52" stroke-width="3.5" stroke-linecap="round"/>
  <line x1="770" y1="104" x2="770" y2="202" stroke="#a33d52" stroke-width="3.5" stroke-linecap="round"/>
  <line x1="808" y1="116" x2="808" y2="190" stroke="#a33d52" stroke-width="3.5" stroke-linecap="round"/>

  <!-- Annotations on the tallest column -->
  <line x1="556" y1="76" x2="588" y2="76" stroke="#5a403a" stroke-width="2.5"/>
  <text x="594" y="80" font-family="Space Grotesk, system-ui, sans-serif" font-size="14" fill="#5a403a">max</text>

  <line x1="556" y1="148" x2="588" y2="148" stroke="#5a403a" stroke-width="2.5" stroke-dasharray="3,3"/>
  <text x="594" y="152" font-family="Space Grotesk, system-ui, sans-serif" font-size="14" fill="#5a403a">RMS</text>

  <line x1="556" y1="230" x2="588" y2="230" stroke="#5a403a" stroke-width="2.5"/>
  <text x="594" y="234" font-family="Space Grotesk, system-ui, sans-serif" font-size="14" fill="#5a403a">min</text>

  <text x="30" y="290" font-family="Space Grotesk, system-ui, sans-serif" font-size="16" fill="#5a403a">Each column stores the envelope (min, max) and a rough energy level (RMS) for its time slice.</text>
</svg>
